<svg width="24" height="20" fill="none" xmlns="http://www.w3.org/2000/svg"><path d="M23.954 2.57a9.999 9.999 0 0 1-2.825.774A4.958 4.958 0 0 0 23.292.621c-.951.555-2.005.96-3.127 1.184a4.92 4.92 0 0 0-8.384 4.482C7.691 6.094 4.066 4.13 1.64 1.161a4.822 4.822 0 0 0-.666 2.475c0 1.71.87 3.213 2.188 4.096a4.904 4.904 0 0 1-2.228-.616v.061a4.923 4.923 0 0 0 3.946 4.827 4.996 4.996 0 0 1-2.212.085 4.937 4.937 0 0 0 4.604 3.417 9.869 9.869 0 0 1-6.102 2.105c-.39 0-.779-.023-1.17-.067a13.995 13.995 0 0 0 7.557 2.209c9.054 0 13.999-7.496 13.999-13.986 0-.209 0-.42-.015-.63.96-.689 1.8-1.56 2.46-2.548l-.047-.02Z" fill="#1C1C33"/></svg>