<svg width="32" height="32" fill="none" xmlns="http://www.w3.org/2000/svg"><path d="M12.687 28a1.09 1.09 0 1 0 0-2.182 1.09 1.09 0 0 0 0 2.182Zm12.601 0a1.09 1.09 0 1 0 0-2.182 1.09 1.09 0 0 0 0 2.182Z" fill="#fff" stroke="#fff" stroke-width="2" stroke-linecap="round" stroke-linejoin="round"/><path d="M3.781 4h.338a4 4 0 0 1 3.943 3.324l2.04 11.898a4 4 0 0 0 3.943 3.323h12.334" stroke="#fff" stroke-width="2" stroke-linecap="round" stroke-linejoin="round"/><path d="M10.557 18.182h15.391a.466.466 0 0 0 .313-.124.558.558 0 0 0 .171-.315l1.777-9.818a.6.6 0 0 0-.102-.453.505.505 0 0 0-.17-.147.455.455 0 0 0-.212-.052H8.583" stroke="#fff" stroke-width="2" stroke-linecap="round" stroke-linejoin="round"/></svg>